<svg width="52" height="50" viewBox="0 0 52 50" fill="none" xmlns="http://www.w3.org/2000/svg">
<rect x="0.193359" width="51.6129" height="50" rx="25" fill="black"/>
<path d="M26.1347 8.60205L15.0924 12.5191C13.7702 12.9881 12.9028 14.2578 12.9466 15.66L13.2315 24.7759C13.7243 29.5698 16.9949 38.1719 26.1347 41.3978V8.60205Z" fill="#09F477"/>
<path d="M26.1347 41.3978C29.0917 41.0393 38.4555 34.6325 39.1275 24.7759V15.5691C39.1275 14.211 38.2769 12.9984 36.9999 12.536L26.1347 8.60205V41.3978Z" fill="#2AEB60"/>
<path d="M24.2415 26.0681C24.2415 26.584 24.1296 27.0512 23.9059 27.4695C23.6892 27.8808 23.3606 28.2085 22.9202 28.4526C22.4798 28.6896 21.9276 28.8082 21.2635 28.8082C20.3127 28.8082 19.5857 28.5572 19.0824 28.0552C18.5861 27.5462 18.3379 26.8768 18.3379 26.0472V21.2363H20.0366V25.8066C20.0366 26.4202 20.1415 26.8524 20.3512 27.1034C20.5679 27.3544 20.8825 27.4799 21.2949 27.4799C21.5885 27.4799 21.8262 27.4207 22.008 27.3022C22.1897 27.1836 22.3225 26.9989 22.4064 26.7479C22.4973 26.4969 22.5427 26.1796 22.5427 25.7962V21.2363H24.2415V26.0681Z" fill="white"/>
<path d="M28.1835 21.2363C29.0853 21.2363 29.7494 21.4455 30.1758 21.8638C30.6092 22.2752 30.8259 22.8434 30.8259 23.5685C30.8259 23.8962 30.7805 24.21 30.6896 24.5098C30.5987 24.8026 30.4484 25.0676 30.2387 25.3046C30.029 25.5347 29.7494 25.716 29.3999 25.8484C29.0573 25.9809 28.6344 26.0472 28.1311 26.0472H27.5439V28.7036H25.8451V21.2363H28.1835ZM28.1311 22.5332H27.5439V24.7503H27.9738C28.1975 24.7503 28.3967 24.712 28.5715 24.6353C28.7462 24.5586 28.8826 24.4366 28.9804 24.2692C29.0783 24.1019 29.1272 23.8858 29.1272 23.6208C29.1272 23.2513 29.0433 22.9794 28.8756 22.8051C28.7148 22.6238 28.4666 22.5332 28.1311 22.5332Z" fill="white"/>
<path d="M33.3507 26.2249H31.977L31.7254 21.2363H33.6023L33.3507 26.2249ZM31.7254 27.9715C31.7254 27.6508 31.8162 27.4277 31.998 27.3022C32.1797 27.1697 32.3999 27.1034 32.6586 27.1034C32.9103 27.1034 33.1235 27.1697 33.2982 27.3022C33.48 27.4277 33.5709 27.6508 33.5709 27.9715C33.5709 28.2783 33.48 28.5014 33.2982 28.6408C33.1235 28.7733 32.9103 28.8395 32.6586 28.8395C32.3999 28.8395 32.1797 28.7733 31.998 28.6408C31.8162 28.5014 31.7254 28.2783 31.7254 27.9715Z" fill="white"/>
</svg>
